<svg width="24" height="24" viewBox="0 0 24 24" fill="none" xmlns="http://www.w3.org/2000/svg">
<path fill-rule="evenodd" clip-rule="evenodd" d="M11.781 6.969C11.8508 7.03867 11.9063 7.12143 11.9441 7.21255C11.9819 7.30366 12.0013 7.40135 12.0013 7.5C12.0013 7.59865 11.9819 7.69633 11.9441 7.78745C11.9063 7.87857 11.8508 7.96133 11.781 8.031L7.8105 12L11.781 15.969C11.8507 16.0387 11.906 16.1215 11.9438 16.2126C11.9815 16.3037 12.0009 16.4014 12.0009 16.5C12.0009 16.5986 11.9815 16.6963 11.9438 16.7874C11.906 16.8785 11.8507 16.9613 11.781 17.031C11.7113 17.1007 11.6285 17.156 11.5374 17.1938C11.4463 17.2315 11.3486 17.2509 11.25 17.2509C11.1514 17.2509 11.0537 17.2315 10.9626 17.1938C10.8715 17.156 10.7887 17.1007 10.719 17.031L6.219 12.531C6.14915 12.4613 6.09374 12.3786 6.05593 12.2874C6.01812 12.1963 5.99866 12.0986 5.99866 12C5.99866 11.9013 6.01812 11.8037 6.05593 11.7125C6.09374 11.6214 6.14915 11.5387 6.219 11.469L10.719 6.969C10.7887 6.89915 10.8714 6.84374 10.9625 6.80593C11.0537 6.76812 11.1513 6.74866 11.25 6.74866C11.3486 6.74866 11.4463 6.76812 11.5374 6.80593C11.6286 6.84374 11.7113 6.89915 11.781 6.969Z" fill="black"/>
<path fill-rule="evenodd" clip-rule="evenodd" d="M6.75 12C6.75 11.8011 6.82902 11.6103 6.96967 11.4697C7.11032 11.329 7.30109 11.25 7.5 11.25H17.25C17.4489 11.25 17.6397 11.329 17.7803 11.4697C17.921 11.6103 18 11.8011 18 12C18 12.1989 17.921 12.3897 17.7803 12.5303C17.6397 12.671 17.4489 12.75 17.25 12.75H7.5C7.30109 12.75 7.11032 12.671 6.96967 12.5303C6.82902 12.3897 6.75 12.1989 6.75 12Z" fill="black"/>
</svg>
