<svg width="14" height="14" viewBox="0 0 14 14" fill="none" xmlns="http://www.w3.org/2000/svg">
<path fill-rule="evenodd" clip-rule="evenodd" d="M8.87775 4.06527C8.91839 4.02453 8.96667 3.9922 9.01982 3.97015C9.07297 3.94809 9.12995 3.93674 9.1875 3.93674C9.24504 3.93674 9.30202 3.94809 9.35518 3.97015C9.40833 3.9922 9.45661 4.02453 9.49725 4.06527L12.1222 6.69027C12.163 6.73091 12.1953 6.77919 12.2174 6.83234C12.2394 6.88549 12.2508 6.94247 12.2508 7.00002C12.2508 7.05757 12.2394 7.11455 12.2174 7.1677C12.1953 7.22085 12.163 7.26913 12.1222 7.30977L9.49725 9.93477C9.4151 10.0169 9.30368 10.0631 9.1875 10.0631C9.07132 10.0631 8.9599 10.0169 8.87775 9.93477C8.7956 9.85262 8.74944 9.7412 8.74944 9.62502C8.74944 9.50884 8.7956 9.39742 8.87775 9.31527L11.1939 7.00002L8.87775 4.68477C8.837 4.64413 8.80468 4.59585 8.78262 4.5427C8.76057 4.48955 8.74921 4.43257 8.74921 4.37502C8.74921 4.31747 8.76057 4.26049 8.78262 4.20734C8.80468 4.15419 8.837 4.10591 8.87775 4.06527Z" fill="#2F80ED"/>
<path fill-rule="evenodd" clip-rule="evenodd" d="M1.75 7C1.75 6.88397 1.79609 6.77269 1.87814 6.69064C1.96019 6.60859 2.07147 6.5625 2.1875 6.5625H11.375C11.491 6.5625 11.6023 6.60859 11.6844 6.69064C11.7664 6.77269 11.8125 6.88397 11.8125 7C11.8125 7.11603 11.7664 7.22731 11.6844 7.30936C11.6023 7.39141 11.491 7.4375 11.375 7.4375H2.1875C2.07147 7.4375 1.96019 7.39141 1.87814 7.30936C1.79609 7.22731 1.75 7.11603 1.75 7Z" fill="#2F80ED"/>
</svg>
