<svg width="24" height="27" viewBox="0 0 24 27" fill="none" xmlns="http://www.w3.org/2000/svg">
<path d="M7.86001 9.82C7.46001 10.98 7.22001 12.22 7.14001 13.52H10.58V9.82H7.86001ZM8.48001 8.32H10.58V5.36C9.74001 6.2 9.04001 7.2 8.48001 8.32ZM6.84001 8.32C7.28001 7.3 7.84001 6.34 8.50001 5.48C6.80001 6.02 5.34001 7.04 4.28001 8.32H6.84001ZM19.4 9.82H16.36C16.72 10.98 16.94 12.22 17 13.52H20.52C20.42 12.18 20.02 10.94 19.4 9.82ZM15.5 13.52C15.44 12.22 15.18 10.98 14.78 9.82H12.06V13.52H15.5ZM14.16 8.32C13.62 7.2 12.9 6.2 12.06 5.36V8.32H14.16ZM15.8 8.32H18.36C17.28 7.06 15.82 6.02 14.14 5.48C14.8 6.34 15.36 7.3 15.8 8.32ZM3.24001 18.72H6.28001C5.92001 17.56 5.70001 16.32 5.64001 15.02H2.12001C2.24001 16.36 2.62001 17.62 3.24001 18.72ZM7.14001 15.02C7.20001 16.32 7.46001 17.56 7.86001 18.72H10.58V15.02H7.14001ZM8.48001 20.22C9.04001 21.34 9.76001 22.34 10.58 23.18V20.22H8.48001ZM6.84001 20.22H4.26001C5.34001 21.48 6.80001 22.52 8.48001 23.06C7.84001 22.22 7.28001 21.26 6.84001 20.22ZM16.36 18.72H19.4C20.02 17.6 20.4 16.36 20.52 15.02H17C16.94 16.32 16.72 17.56 16.36 18.72ZM14.78 18.72C15.18 17.56 15.42 16.32 15.5 15.02H12.06V18.72H14.78ZM14.16 20.22H12.06V23.18C12.9 22.36 13.62 21.36 14.16 20.22ZM15.8 20.22C15.36 21.24 14.8 22.2 14.14 23.06C15.84 22.52 17.3 21.5 18.36 20.22H15.8ZM6.28001 9.82H3.24001C2.62001 10.94 2.24001 12.2 2.12001 13.52H5.64001C5.72001 12.24 5.94001 10.98 6.28001 9.82ZM11.32 25C5.40001 25 0.600006 20.2 0.600006 14.28C0.600006 8.36 5.40001 3.56 11.32 3.56C17.24 3.56 22.04 8.36 22.04 14.28C22.04 20.2 17.24 25 11.32 25Z" fill="white"/>
</svg>
