<svg width="220" height="53" viewBox="0 0 220 53" fill="none" xmlns="http://www.w3.org/2000/svg">
<rect width="50" height="53" fill="#0C7B26"/>
<path d="M26.2322 34.9996V12.5996H24.1202L15.7362 30.6796L7.35223 12.5996H5.24023V34.9996H7.80023V19.6716L14.9042 34.9996H16.5682L23.6722 19.6716V34.9996H26.2322Z" fill="white"/>
<path d="M44.597 18.2636H42.037V28.7596C42.037 29.9436 41.685 30.8716 41.013 31.4796C40.277 32.0876 39.125 32.4396 37.653 32.4396C36.181 32.4396 35.029 32.0876 34.293 31.4796C33.589 30.8716 33.269 29.9436 33.269 28.7596V18.2636H30.709V28.7596C30.709 30.6796 31.349 32.3116 32.597 33.3996C33.813 34.4556 35.509 34.9996 37.653 34.9996C39.413 34.9996 40.885 34.6156 42.037 33.8796V34.4236C42.037 35.6076 41.685 36.5356 41.013 37.1436C40.277 37.7836 39.125 38.1036 37.653 38.1036H37.269C36.117 38.1036 35.189 37.9116 34.485 37.5276C33.845 37.1756 33.429 36.7276 33.173 36.0556L30.805 37.0156C31.285 38.2316 32.117 39.1596 33.269 39.7676C34.357 40.3756 35.701 40.6636 37.269 40.6636H37.653C39.765 40.6636 41.461 40.1196 42.677 39.0636C43.925 37.9756 44.597 36.3756 44.597 34.4236V18.2636Z" fill="white"/>
<path d="M52.3965 12.5996V34.9996H60.7485C62.8925 34.9996 64.5885 34.4556 65.8045 33.3996C67.0525 32.3116 67.7245 30.7116 67.7245 28.7596C67.7245 26.8076 67.0525 25.2076 65.8045 24.1196C65.6765 23.9916 65.5485 23.8956 65.3885 23.7996C65.5485 23.7036 65.6765 23.5756 65.8045 23.4796C67.0525 22.3916 67.7245 20.7916 67.7245 18.8396C67.7245 16.8876 67.0525 15.2876 65.8045 14.1996C64.5885 13.1436 62.8925 12.5996 60.7485 12.5996H52.3965ZM54.9565 15.1596H60.7485C62.2525 15.1596 63.4045 15.4796 64.1085 16.1196C64.8125 16.7276 65.1645 17.6236 65.1645 18.8396C65.1645 20.0236 64.8125 20.9516 64.1085 21.5596C63.4045 22.1676 62.2525 22.5196 60.7485 22.5196H54.9565V15.1596ZM54.9565 25.0796H60.7485C62.2525 25.0796 63.4045 25.3996 64.1085 26.0396C64.8125 26.6476 65.1645 27.5436 65.1645 28.7596C65.1645 29.9436 64.8125 30.8716 64.1085 31.4796C63.4045 32.1196 62.2525 32.4396 60.7485 32.4396H54.9565V25.0796Z" fill="#222222"/>
<path d="M85.472 34.9996V18.2636H82.912V28.7596C82.912 29.9436 82.56 30.8716 81.888 31.4796C81.152 32.1196 80 32.4396 78.528 32.4396C77.056 32.4396 75.904 32.1196 75.168 31.4796C74.496 30.8716 74.144 29.9436 74.144 28.7596V18.2636H71.584V28.7596C71.584 30.7116 72.224 32.3116 73.472 33.3996C74.688 34.4556 76.384 34.9996 78.528 34.9996C80.288 34.9996 81.76 34.6156 82.912 33.8796V34.9996H85.472Z" fill="#222222"/>
<path d="M96.278 18.2636C94.23 18.2636 92.598 18.6476 91.414 19.3836C90.742 19.7996 90.23 20.3116 89.878 20.9516C89.526 21.5916 89.334 22.2956 89.334 23.0956C89.334 23.8636 89.526 24.5996 89.878 25.2396C90.23 25.8476 90.742 26.3916 91.414 26.8076C92.598 27.5436 94.23 27.8956 96.278 27.8956C98.23 27.8956 99.286 28.3116 99.798 28.6316C100.406 29.0156 100.662 29.4956 100.662 30.1676C100.662 30.8716 100.406 31.3516 99.798 31.7036C99.286 32.0556 98.23 32.4396 96.278 32.4396H95.894C94.774 32.4396 93.846 32.2476 93.11 31.8636C92.502 31.5116 92.054 31.0636 91.798 30.3916L89.43 31.3516C89.91 32.5676 90.742 33.4956 91.894 34.1036C92.982 34.7116 94.326 34.9996 95.894 34.9996H96.278C98.326 34.9996 99.99 34.6156 101.174 33.8796C101.814 33.4636 102.358 32.9516 102.71 32.3116C103.062 31.6716 103.222 30.9676 103.222 30.1676C103.222 29.3996 103.062 28.6636 102.71 28.0236C102.358 27.4156 101.814 26.8716 101.174 26.4556C99.99 25.7196 98.326 25.3356 96.278 25.3356C94.326 25.3356 93.302 24.9516 92.758 24.6316C92.15 24.2476 91.894 23.7676 91.894 23.0956C91.894 22.3916 92.15 21.9116 92.758 21.5596C93.302 21.2076 94.326 20.8236 96.278 20.8236H96.662C97.814 20.8236 98.742 21.0156 99.446 21.3996C100.086 21.7516 100.502 22.1996 100.758 22.8716L103.126 21.9116C102.646 20.6956 101.814 19.7676 100.662 19.1596C99.574 18.5516 98.23 18.2636 96.662 18.2636H96.278Z" fill="#222222"/>
<path d="M108.684 12.5996C107.82 12.5996 107.084 13.3036 107.084 14.1996C107.084 15.0636 107.82 15.7996 108.684 15.7996C109.58 15.7996 110.284 15.0636 110.284 14.1996C110.284 13.3036 109.58 12.5996 108.684 12.5996ZM109.964 34.9996V18.2636H107.404V34.9996H109.964Z" fill="#222222"/>
<path d="M121.715 18.2636C119.955 18.2636 118.483 18.6476 117.331 19.3836V18.2636H114.771V34.9996H117.331V24.5036C117.331 23.3196 117.683 22.3916 118.355 21.7836C119.091 21.1436 120.243 20.8236 121.715 20.8236C123.187 20.8236 124.339 21.1436 125.075 21.7836C125.779 22.3916 126.099 23.3196 126.099 24.5036V34.9996H128.659V24.5036C128.659 22.5516 128.019 20.9516 126.771 19.8636C125.555 18.8076 123.859 18.2636 121.715 18.2636Z" fill="#222222"/>
<path d="M139.122 18.2636C137.01 18.2636 135.314 18.8076 134.098 19.8636C132.85 20.9516 132.178 22.5516 132.178 24.5036V28.7596C132.178 30.7116 132.85 32.3116 134.098 33.3996C135.314 34.4556 137.01 34.9996 139.122 34.9996H139.506C141.074 34.9996 142.418 34.7116 143.506 34.1036C144.658 33.4956 145.49 32.5676 145.97 31.3516L143.602 30.3916C143.346 31.0636 142.93 31.5116 142.29 31.8636C141.586 32.2476 140.658 32.4396 139.506 32.4396H139.122C137.65 32.4396 136.498 32.1196 135.762 31.4796C135.09 30.8716 134.738 29.9436 134.738 28.7596V27.8956H146.066V24.5036C146.066 22.5516 145.426 20.9516 144.178 19.8636C142.962 18.8076 141.266 18.2636 139.122 18.2636ZM139.122 20.8236C140.594 20.8236 141.746 21.1436 142.482 21.7836C143.186 22.3916 143.506 23.3196 143.506 24.5036V25.3356H134.738V24.5036C134.738 23.3196 135.09 22.3916 135.762 21.7836C136.498 21.1436 137.65 20.8236 139.122 20.8236Z" fill="#222222"/>
<path d="M155.903 18.2636C153.855 18.2636 152.223 18.6476 151.039 19.3836C150.367 19.7996 149.855 20.3116 149.503 20.9516C149.151 21.5916 148.959 22.2956 148.959 23.0956C148.959 23.8636 149.151 24.5996 149.503 25.2396C149.855 25.8476 150.367 26.3916 151.039 26.8076C152.223 27.5436 153.855 27.8956 155.903 27.8956C157.855 27.8956 158.911 28.3116 159.423 28.6316C160.031 29.0156 160.287 29.4956 160.287 30.1676C160.287 30.8716 160.031 31.3516 159.423 31.7036C158.911 32.0556 157.855 32.4396 155.903 32.4396H155.519C154.399 32.4396 153.471 32.2476 152.735 31.8636C152.127 31.5116 151.679 31.0636 151.423 30.3916L149.055 31.3516C149.535 32.5676 150.367 33.4956 151.519 34.1036C152.607 34.7116 153.951 34.9996 155.519 34.9996H155.903C157.951 34.9996 159.615 34.6156 160.799 33.8796C161.439 33.4636 161.983 32.9516 162.335 32.3116C162.687 31.6716 162.847 30.9676 162.847 30.1676C162.847 29.3996 162.687 28.6636 162.335 28.0236C161.983 27.4156 161.439 26.8716 160.799 26.4556C159.615 25.7196 157.951 25.3356 155.903 25.3356C153.951 25.3356 152.927 24.9516 152.383 24.6316C151.775 24.2476 151.519 23.7676 151.519 23.0956C151.519 22.3916 151.775 21.9116 152.383 21.5596C152.927 21.2076 153.951 20.8236 155.903 20.8236H156.287C157.439 20.8236 158.367 21.0156 159.071 21.3996C159.711 21.7516 160.127 22.1996 160.383 22.8716L162.751 21.9116C162.271 20.6956 161.439 19.7676 160.287 19.1596C159.199 18.5516 157.855 18.2636 156.287 18.2636H155.903Z" fill="#222222"/>
<path d="M172.684 18.2636C170.636 18.2636 169.004 18.6476 167.82 19.3836C167.148 19.7996 166.636 20.3116 166.284 20.9516C165.932 21.5916 165.74 22.2956 165.74 23.0956C165.74 23.8636 165.932 24.5996 166.284 25.2396C166.636 25.8476 167.148 26.3916 167.82 26.8076C169.004 27.5436 170.636 27.8956 172.684 27.8956C174.636 27.8956 175.692 28.3116 176.204 28.6316C176.812 29.0156 177.068 29.4956 177.068 30.1676C177.068 30.8716 176.812 31.3516 176.204 31.7036C175.692 32.0556 174.636 32.4396 172.684 32.4396H172.3C171.18 32.4396 170.252 32.2476 169.516 31.8636C168.908 31.5116 168.46 31.0636 168.204 30.3916L165.836 31.3516C166.316 32.5676 167.148 33.4956 168.3 34.1036C169.388 34.7116 170.732 34.9996 172.3 34.9996H172.684C174.732 34.9996 176.396 34.6156 177.58 33.8796C178.22 33.4636 178.764 32.9516 179.116 32.3116C179.468 31.6716 179.628 30.9676 179.628 30.1676C179.628 29.3996 179.468 28.6636 179.116 28.0236C178.764 27.4156 178.22 26.8716 177.58 26.4556C176.396 25.7196 174.732 25.3356 172.684 25.3356C170.732 25.3356 169.708 24.9516 169.164 24.6316C168.556 24.2476 168.3 23.7676 168.3 23.0956C168.3 22.3916 168.556 21.9116 169.164 21.5596C169.708 21.2076 170.732 20.8236 172.684 20.8236H173.068C174.22 20.8236 175.148 21.0156 175.852 21.3996C176.492 21.7516 176.908 22.1996 177.164 22.8716L179.532 21.9116C179.052 20.6956 178.22 19.7676 177.068 19.1596C175.98 18.5516 174.636 18.2636 173.068 18.2636H172.684Z" fill="#222222"/>
<path d="M184.746 31.7996C183.85 31.7996 183.146 32.5036 183.146 33.3996C183.146 34.2956 183.85 34.9996 184.746 34.9996C185.642 34.9996 186.346 34.2956 186.346 33.3996C186.346 32.5036 185.642 31.7996 184.746 31.7996Z" fill="#222222"/>
<path d="M193.394 26.1676V12.5996H190.834V34.9996H193.394V29.9756L195.538 27.6396L200.946 34.9996H204.114L197.298 25.6876L204.114 18.2636H200.658L193.394 26.1676Z" fill="#222222"/>
<path d="M219.758 21.4636V18.2636H206.99V20.8236H216.878L206.99 31.7996V34.9996H219.758V32.4396H209.87L219.758 21.4636Z" fill="#222222"/>
</svg>
